<mxfile host="app.diagrams.net" agent="Mozilla/5.0 (Windows NT 10.0; Win64; x64) AppleWebKit/537.36 (KHTML, like Gecko) Chrome/135.0.0.0 Safari/537.36" version="26.2.12">
  <diagram name="Page-1" id="qS0cvJGrM9_rWJv0Hqf2">
    <mxGraphModel dx="2278" dy="897" grid="1" gridSize="10" guides="1" tooltips="1" connect="1" arrows="1" fold="1" page="1" pageScale="1" pageWidth="850" pageHeight="1100" math="0" shadow="0">
      <root>
        <mxCell id="0" />
        <mxCell id="1" parent="0" />
        <mxCell id="wwIlyqXlnapSBDa5ZAUX-1" value="&lt;font style=&quot;font-size: 14px;&quot;&gt;Απλός Αναγνώστης&lt;/font&gt;" style="shape=umlActor;verticalLabelPosition=bottom;verticalAlign=top;html=1;outlineConnect=0;" parent="1" vertex="1">
          <mxGeometry x="-20" y="400" width="40" height="70" as="geometry" />
        </mxCell>
        <mxCell id="wwIlyqXlnapSBDa5ZAUX-2" value="" style="shape=umlBoundary;whiteSpace=wrap;html=1;" parent="1" vertex="1">
          <mxGeometry x="210" y="410" width="100" height="80" as="geometry" />
        </mxCell>
        <mxCell id="wwIlyqXlnapSBDa5ZAUX-3" value="" style="ellipse;shape=umlEntity;whiteSpace=wrap;html=1;" parent="1" vertex="1">
          <mxGeometry x="540" y="290" width="80" height="80" as="geometry" />
        </mxCell>
        <mxCell id="wwIlyqXlnapSBDa5ZAUX-4" value="&lt;font style=&quot;font-size: 14px;&quot;&gt;Εμφάνιση προσφερόμεων βιβλίων&lt;/font&gt;" style="ellipse;shape=umlControl;whiteSpace=wrap;html=1;" parent="1" vertex="1">
          <mxGeometry x="365" y="255" width="120" height="100" as="geometry" />
        </mxCell>
        <mxCell id="wwIlyqXlnapSBDa5ZAUX-5" value="&lt;font style=&quot;font-size: 14px;&quot;&gt;My Book Offers&lt;/font&gt;" style="text;html=1;align=center;verticalAlign=middle;resizable=0;points=[];autosize=1;strokeColor=none;fillColor=none;" parent="1" vertex="1">
          <mxGeometry x="210" y="380" width="120" height="30" as="geometry" />
        </mxCell>
        <mxCell id="wwIlyqXlnapSBDa5ZAUX-6" value="" style="shape=umlBoundary;whiteSpace=wrap;html=1;" parent="1" vertex="1">
          <mxGeometry x="210" y="550" width="100" height="80" as="geometry" />
        </mxCell>
        <mxCell id="wwIlyqXlnapSBDa5ZAUX-7" value="&lt;font style=&quot;font-size: 14px;&quot;&gt;Add New Book Offer&lt;/font&gt;" style="text;html=1;align=center;verticalAlign=middle;resizable=0;points=[];autosize=1;strokeColor=none;fillColor=none;" parent="1" vertex="1">
          <mxGeometry x="195" y="520" width="150" height="30" as="geometry" />
        </mxCell>
        <mxCell id="wwIlyqXlnapSBDa5ZAUX-8" value="" style="endArrow=none;html=1;rounded=0;entryX=-0.04;entryY=0.475;entryDx=0;entryDy=0;entryPerimeter=0;" parent="1" source="wwIlyqXlnapSBDa5ZAUX-1" target="wwIlyqXlnapSBDa5ZAUX-2" edge="1">
          <mxGeometry width="50" height="50" relative="1" as="geometry">
            <mxPoint x="400" y="490" as="sourcePoint" />
            <mxPoint x="200" y="445" as="targetPoint" />
          </mxGeometry>
        </mxCell>
        <mxCell id="wwIlyqXlnapSBDa5ZAUX-9" value="" style="shape=umlBoundary;whiteSpace=wrap;html=1;" parent="1" vertex="1">
          <mxGeometry x="210" y="275" width="100" height="80" as="geometry" />
        </mxCell>
        <mxCell id="wwIlyqXlnapSBDa5ZAUX-10" value="&lt;font style=&quot;font-size: 14px;&quot;&gt;Homepage&lt;/font&gt;" style="text;html=1;align=center;verticalAlign=middle;resizable=0;points=[];autosize=1;strokeColor=none;fillColor=none;" parent="1" vertex="1">
          <mxGeometry x="225" y="245" width="90" height="30" as="geometry" />
        </mxCell>
        <mxCell id="wwIlyqXlnapSBDa5ZAUX-11" value="" style="endArrow=none;html=1;rounded=0;entryX=-0.03;entryY=0.475;entryDx=0;entryDy=0;entryPerimeter=0;" parent="1" source="wwIlyqXlnapSBDa5ZAUX-1" target="wwIlyqXlnapSBDa5ZAUX-9" edge="1">
          <mxGeometry width="50" height="50" relative="1" as="geometry">
            <mxPoint x="90" y="455" as="sourcePoint" />
            <mxPoint x="216" y="458" as="targetPoint" />
          </mxGeometry>
        </mxCell>
        <mxCell id="wwIlyqXlnapSBDa5ZAUX-12" value="&lt;font&gt;Επιλογή προσφερόμενων&amp;nbsp;&lt;/font&gt;&lt;div&gt;&lt;font&gt;βιβλίων&lt;/font&gt;&lt;/div&gt;" style="text;html=1;align=center;verticalAlign=middle;resizable=0;points=[];autosize=1;strokeColor=none;fillColor=none;rotation=-35;" parent="1" vertex="1">
          <mxGeometry x="30" y="330" width="160" height="40" as="geometry" />
        </mxCell>
        <mxCell id="wwIlyqXlnapSBDa5ZAUX-13" value="" style="endArrow=none;html=1;rounded=0;entryX=0.017;entryY=0.39;entryDx=0;entryDy=0;entryPerimeter=0;exitX=1.01;exitY=0.425;exitDx=0;exitDy=0;exitPerimeter=0;" parent="1" source="wwIlyqXlnapSBDa5ZAUX-9" target="wwIlyqXlnapSBDa5ZAUX-4" edge="1">
          <mxGeometry width="50" height="50" relative="1" as="geometry">
            <mxPoint x="90" y="455" as="sourcePoint" />
            <mxPoint x="216" y="458" as="targetPoint" />
          </mxGeometry>
        </mxCell>
        <mxCell id="wwIlyqXlnapSBDa5ZAUX-14" value="" style="endArrow=none;html=1;rounded=0;entryX=0.314;entryY=1;entryDx=0;entryDy=0;entryPerimeter=0;exitX=1.03;exitY=0.438;exitDx=0;exitDy=0;exitPerimeter=0;" parent="1" source="wwIlyqXlnapSBDa5ZAUX-2" target="wwIlyqXlnapSBDa5ZAUX-4" edge="1">
          <mxGeometry width="50" height="50" relative="1" as="geometry">
            <mxPoint x="323" y="335" as="sourcePoint" />
            <mxPoint x="380" y="350" as="targetPoint" />
          </mxGeometry>
        </mxCell>
        <mxCell id="wwIlyqXlnapSBDa5ZAUX-15" value="&lt;font style=&quot;font-size: 14px;&quot;&gt;Βάση Δεδομένων&lt;/font&gt;" style="text;html=1;align=center;verticalAlign=middle;resizable=0;points=[];autosize=1;strokeColor=none;fillColor=none;" parent="1" vertex="1">
          <mxGeometry x="525" y="260" width="130" height="30" as="geometry" />
        </mxCell>
        <mxCell id="wwIlyqXlnapSBDa5ZAUX-16" value="" style="endArrow=none;html=1;rounded=0;entryX=0;entryY=0.5;entryDx=0;entryDy=0;exitX=0.957;exitY=0.413;exitDx=0;exitDy=0;exitPerimeter=0;" parent="1" source="wwIlyqXlnapSBDa5ZAUX-4" target="wwIlyqXlnapSBDa5ZAUX-3" edge="1">
          <mxGeometry width="50" height="50" relative="1" as="geometry">
            <mxPoint x="323" y="455" as="sourcePoint" />
            <mxPoint x="402" y="380" as="targetPoint" />
          </mxGeometry>
        </mxCell>
        <mxCell id="wwIlyqXlnapSBDa5ZAUX-17" value="" style="endArrow=none;html=1;rounded=0;entryX=-0.03;entryY=0.488;entryDx=0;entryDy=0;entryPerimeter=0;" parent="1" source="wwIlyqXlnapSBDa5ZAUX-1" target="wwIlyqXlnapSBDa5ZAUX-6" edge="1">
          <mxGeometry width="50" height="50" relative="1" as="geometry">
            <mxPoint x="90" y="455" as="sourcePoint" />
            <mxPoint x="216" y="458" as="targetPoint" />
          </mxGeometry>
        </mxCell>
        <mxCell id="wwIlyqXlnapSBDa5ZAUX-18" value="&lt;font style=&quot;font-size: 14px;&quot;&gt;Εμφάνιση φόρμα συμπλήρωσης καινούργιου βιβλίου&lt;/font&gt;" style="ellipse;shape=umlControl;whiteSpace=wrap;html=1;" parent="1" vertex="1">
          <mxGeometry x="355" y="463" width="140" height="100" as="geometry" />
        </mxCell>
        <mxCell id="wwIlyqXlnapSBDa5ZAUX-19" value="" style="endArrow=none;html=1;rounded=0;entryX=0.229;entryY=0.938;entryDx=0;entryDy=0;entryPerimeter=0;exitX=1.03;exitY=0.438;exitDx=0;exitDy=0;exitPerimeter=0;" parent="1" target="wwIlyqXlnapSBDa5ZAUX-18" edge="1">
          <mxGeometry width="50" height="50" relative="1" as="geometry">
            <mxPoint x="310" y="595" as="sourcePoint" />
            <mxPoint x="389" y="520" as="targetPoint" />
          </mxGeometry>
        </mxCell>
        <mxCell id="wwIlyqXlnapSBDa5ZAUX-20" value="" style="endArrow=none;html=1;rounded=0;entryX=0.079;entryY=0.3;entryDx=0;entryDy=0;entryPerimeter=0;exitX=0.93;exitY=0.838;exitDx=0;exitDy=0;exitPerimeter=0;" parent="1" source="wwIlyqXlnapSBDa5ZAUX-2" target="wwIlyqXlnapSBDa5ZAUX-18" edge="1">
          <mxGeometry width="50" height="50" relative="1" as="geometry">
            <mxPoint x="310" y="480" as="sourcePoint" />
            <mxPoint x="367" y="495" as="targetPoint" />
          </mxGeometry>
        </mxCell>
        <mxCell id="wwIlyqXlnapSBDa5ZAUX-21" value="&lt;font style=&quot;font-size: 13px;&quot;&gt;Επιλογή προσθήκης&lt;/font&gt;&lt;div&gt;&lt;font style=&quot;font-size: 13px;&quot;&gt;νέας προσφοράς βιβλίου&lt;/font&gt;&lt;/div&gt;" style="text;html=1;align=center;verticalAlign=middle;resizable=0;points=[];autosize=1;strokeColor=none;fillColor=none;rotation=5;" parent="1" vertex="1">
          <mxGeometry x="40" y="400" width="170" height="40" as="geometry" />
        </mxCell>
        <mxCell id="wwIlyqXlnapSBDa5ZAUX-22" value="&lt;font style=&quot;font-size: 13px;&quot;&gt;Συμπλήρωση στοιχείων&amp;nbsp;&lt;/font&gt;&lt;div&gt;&lt;font style=&quot;font-size: 13px;&quot;&gt;προσφερόμενου βιβλίου&lt;/font&gt;&lt;/div&gt;" style="text;html=1;align=center;verticalAlign=middle;resizable=0;points=[];autosize=1;strokeColor=none;fillColor=none;rotation=30;" parent="1" vertex="1">
          <mxGeometry x="60" y="490" width="160" height="40" as="geometry" />
        </mxCell>
        <mxCell id="wwIlyqXlnapSBDa5ZAUX-23" value="&lt;font style=&quot;font-size: 14px;&quot;&gt;Ελέγχει Εγκυρότητα στοιχείων&amp;nbsp;&lt;/font&gt;" style="ellipse;shape=umlControl;whiteSpace=wrap;html=1;" parent="1" vertex="1">
          <mxGeometry x="370" y="615" width="80" height="90" as="geometry" />
        </mxCell>
        <mxCell id="wwIlyqXlnapSBDa5ZAUX-24" value="" style="endArrow=none;html=1;rounded=0;exitX=0.93;exitY=0.838;exitDx=0;exitDy=0;exitPerimeter=0;" parent="1" target="wwIlyqXlnapSBDa5ZAUX-23" edge="1">
          <mxGeometry width="50" height="50" relative="1" as="geometry">
            <mxPoint x="296" y="620" as="sourcePoint" />
            <mxPoint x="360" y="638" as="targetPoint" />
          </mxGeometry>
        </mxCell>
        <mxCell id="wwIlyqXlnapSBDa5ZAUX-25" value="" style="endArrow=none;html=1;rounded=0;exitX=0.813;exitY=0.222;exitDx=0;exitDy=0;exitPerimeter=0;" parent="1" source="wwIlyqXlnapSBDa5ZAUX-28" target="wwIlyqXlnapSBDa5ZAUX-3" edge="1">
          <mxGeometry width="50" height="50" relative="1" as="geometry">
            <mxPoint x="470" y="500" as="sourcePoint" />
            <mxPoint x="508" y="568.5" as="targetPoint" />
          </mxGeometry>
        </mxCell>
        <mxCell id="wwIlyqXlnapSBDa5ZAUX-28" value="&lt;font style=&quot;font-size: 14px;&quot;&gt;Καταχωρεί βιβλίο&lt;/font&gt;" style="ellipse;shape=umlControl;whiteSpace=wrap;html=1;" parent="1" vertex="1">
          <mxGeometry x="515" y="540" width="80" height="90" as="geometry" />
        </mxCell>
        <mxCell id="wwIlyqXlnapSBDa5ZAUX-30" value="" style="ellipse;shape=umlEntity;whiteSpace=wrap;html=1;" parent="1" vertex="1">
          <mxGeometry x="740" y="500" width="80" height="80" as="geometry" />
        </mxCell>
        <mxCell id="wwIlyqXlnapSBDa5ZAUX-31" value="&lt;font style=&quot;font-size: 14px;&quot;&gt;Βιβλίο&lt;/font&gt;" style="text;html=1;align=center;verticalAlign=middle;resizable=0;points=[];autosize=1;strokeColor=none;fillColor=none;" parent="1" vertex="1">
          <mxGeometry x="750" y="575" width="60" height="30" as="geometry" />
        </mxCell>
        <mxCell id="wwIlyqXlnapSBDa5ZAUX-32" value="&lt;font style=&quot;font-size: 14px;&quot;&gt;Δημιουργία βιβλίο&lt;/font&gt;" style="ellipse;shape=umlControl;whiteSpace=wrap;html=1;" parent="1" vertex="1">
          <mxGeometry x="635" y="420" width="80" height="90" as="geometry" />
        </mxCell>
        <mxCell id="wwIlyqXlnapSBDa5ZAUX-33" value="" style="endArrow=none;html=1;rounded=0;entryX=0.375;entryY=0;entryDx=0;entryDy=0;entryPerimeter=0;" parent="1" source="wwIlyqXlnapSBDa5ZAUX-32" target="wwIlyqXlnapSBDa5ZAUX-30" edge="1">
          <mxGeometry width="50" height="50" relative="1" as="geometry">
            <mxPoint x="677" y="614" as="sourcePoint" />
            <mxPoint x="740" y="630" as="targetPoint" />
          </mxGeometry>
        </mxCell>
        <mxCell id="wwIlyqXlnapSBDa5ZAUX-34" value="" style="endArrow=none;html=1;rounded=0;" parent="1" source="wwIlyqXlnapSBDa5ZAUX-28" target="wwIlyqXlnapSBDa5ZAUX-32" edge="1">
          <mxGeometry width="50" height="50" relative="1" as="geometry">
            <mxPoint x="600" y="560" as="sourcePoint" />
            <mxPoint x="627" y="574" as="targetPoint" />
          </mxGeometry>
        </mxCell>
        <mxCell id="wwIlyqXlnapSBDa5ZAUX-36" value="&lt;font style=&quot;font-size: 14px;&quot;&gt;Εμφάνιση παραθύρου επιβεβαίσωσης&lt;/font&gt;" style="ellipse;shape=umlControl;whiteSpace=wrap;html=1;" parent="1" vertex="1">
          <mxGeometry x="595" y="605" width="120" height="110" as="geometry" />
        </mxCell>
        <mxCell id="wwIlyqXlnapSBDa5ZAUX-37" value="" style="endArrow=none;html=1;rounded=0;" parent="1" source="wwIlyqXlnapSBDa5ZAUX-32" target="wwIlyqXlnapSBDa5ZAUX-36" edge="1">
          <mxGeometry width="50" height="50" relative="1" as="geometry">
            <mxPoint x="723" y="489" as="sourcePoint" />
            <mxPoint x="780" y="510" as="targetPoint" />
          </mxGeometry>
        </mxCell>
        <mxCell id="wwIlyqXlnapSBDa5ZAUX-38" value="" style="shape=umlBoundary;whiteSpace=wrap;html=1;" parent="1" vertex="1">
          <mxGeometry x="230" y="715" width="100" height="80" as="geometry" />
        </mxCell>
        <mxCell id="wwIlyqXlnapSBDa5ZAUX-40" value="&lt;font style=&quot;font-size: 14px;&quot;&gt;Book Added&lt;/font&gt;" style="text;html=1;align=center;verticalAlign=middle;resizable=0;points=[];autosize=1;strokeColor=none;fillColor=none;" parent="1" vertex="1">
          <mxGeometry x="240" y="795" width="100" height="30" as="geometry" />
        </mxCell>
        <mxCell id="wwIlyqXlnapSBDa5ZAUX-41" value="" style="endArrow=none;html=1;rounded=0;" parent="1" source="wwIlyqXlnapSBDa5ZAUX-36" target="wwIlyqXlnapSBDa5ZAUX-38" edge="1">
          <mxGeometry width="50" height="50" relative="1" as="geometry">
            <mxPoint x="570" y="650" as="sourcePoint" />
            <mxPoint x="560" y="745" as="targetPoint" />
          </mxGeometry>
        </mxCell>
        <mxCell id="wwIlyqXlnapSBDa5ZAUX-42" value="" style="endArrow=none;html=1;rounded=0;entryX=-0.03;entryY=0.525;entryDx=0;entryDy=0;entryPerimeter=0;" parent="1" source="wwIlyqXlnapSBDa5ZAUX-1" target="wwIlyqXlnapSBDa5ZAUX-38" edge="1">
          <mxGeometry width="50" height="50" relative="1" as="geometry">
            <mxPoint x="8" y="590" as="sourcePoint" />
            <mxPoint x="195" y="729" as="targetPoint" />
          </mxGeometry>
        </mxCell>
        <mxCell id="wwIlyqXlnapSBDa5ZAUX-43" value="Σωστά στοιχεία" style="text;html=1;align=center;verticalAlign=middle;resizable=0;points=[];autosize=1;strokeColor=none;fillColor=none;rotation=15;" parent="1" vertex="1">
          <mxGeometry x="480" y="720" width="110" height="30" as="geometry" />
        </mxCell>
        <mxCell id="pKSuD7FRT5NHdBnDsAZM-1" value="" style="shape=umlBoundary;whiteSpace=wrap;html=1;strokeColor=#FF3333;" parent="1" vertex="1">
          <mxGeometry x="30" y="710" width="100" height="80" as="geometry" />
        </mxCell>
        <mxCell id="pKSuD7FRT5NHdBnDsAZM-2" value="&lt;font style=&quot;font-size: 14px;&quot;&gt;Add New Book Offer&lt;/font&gt;" style="text;html=1;align=center;verticalAlign=middle;resizable=0;points=[];autosize=1;strokeColor=none;fillColor=none;fontColor=#FF3333;" parent="1" vertex="1">
          <mxGeometry x="5" y="790" width="150" height="30" as="geometry" />
        </mxCell>
        <mxCell id="pKSuD7FRT5NHdBnDsAZM-3" value="" style="endArrow=none;html=1;rounded=0;fontColor=#000000;strokeColor=#FF3333;" parent="1" source="wwIlyqXlnapSBDa5ZAUX-1" target="pKSuD7FRT5NHdBnDsAZM-1" edge="1">
          <mxGeometry width="50" height="50" relative="1" as="geometry">
            <mxPoint x="30" y="473" as="sourcePoint" />
            <mxPoint x="237" y="767" as="targetPoint" />
          </mxGeometry>
        </mxCell>
        <mxCell id="pKSuD7FRT5NHdBnDsAZM-4" value="&lt;font style=&quot;font-size: 13px;&quot;&gt;Συμπληρωση ελλιπών&amp;nbsp;&lt;/font&gt;&lt;div&gt;&lt;font style=&quot;font-size: 13px;&quot;&gt;στοιχείων&amp;nbsp;&lt;/font&gt;&lt;div&gt;&lt;font style=&quot;font-size: 13px;&quot;&gt;προσφερόμενου&amp;nbsp;&lt;/font&gt;&lt;/div&gt;&lt;div&gt;&lt;font style=&quot;font-size: 13px;&quot;&gt;βιβλίου&lt;/font&gt;&lt;/div&gt;&lt;/div&gt;" style="text;html=1;align=center;verticalAlign=middle;resizable=0;points=[];autosize=1;strokeColor=none;fillColor=none;rotation=75;fontColor=#FF3333;" parent="1" vertex="1">
          <mxGeometry x="-70" y="600" width="160" height="80" as="geometry" />
        </mxCell>
        <mxCell id="pKSuD7FRT5NHdBnDsAZM-5" value="" style="endArrow=none;html=1;rounded=0;entryX=1.01;entryY=0.354;entryDx=0;entryDy=0;entryPerimeter=0;strokeColor=#FF3333;" parent="1" source="wwIlyqXlnapSBDa5ZAUX-23" target="pKSuD7FRT5NHdBnDsAZM-1" edge="1">
          <mxGeometry width="50" height="50" relative="1" as="geometry">
            <mxPoint x="607" y="685" as="sourcePoint" />
            <mxPoint x="340" y="752" as="targetPoint" />
          </mxGeometry>
        </mxCell>
        <mxCell id="pKSuD7FRT5NHdBnDsAZM-6" value="Λάθος στοιχεία" style="text;html=1;align=center;verticalAlign=middle;resizable=0;points=[];autosize=1;strokeColor=none;fillColor=none;rotation=-15;fontColor=#FF3333;" parent="1" vertex="1">
          <mxGeometry x="215" y="675" width="100" height="30" as="geometry" />
        </mxCell>
        <mxCell id="pKSuD7FRT5NHdBnDsAZM-7" value="" style="shape=umlBoundary;whiteSpace=wrap;html=1;strokeColor=#FF3333;" parent="1" vertex="1">
          <mxGeometry x="-140" y="752.5" width="100" height="80" as="geometry" />
        </mxCell>
        <mxCell id="pKSuD7FRT5NHdBnDsAZM-8" value="&lt;font style=&quot;font-size: 14px;&quot;&gt;Wrong Book Details&lt;/font&gt;" style="text;html=1;align=center;verticalAlign=middle;resizable=0;points=[];autosize=1;strokeColor=none;fillColor=none;fontColor=#FF3333;" parent="1" vertex="1">
          <mxGeometry x="-145" y="827.5" width="150" height="30" as="geometry" />
        </mxCell>
        <mxCell id="pKSuD7FRT5NHdBnDsAZM-9" value="&lt;span style=&quot;font-size: 14px;&quot;&gt;&lt;font style=&quot;color: rgb(255, 51, 51);&quot;&gt;Εμφάνιση μηνύματος ελλιπών στοιχείων βιβλίου&lt;/font&gt;&lt;/span&gt;" style="ellipse;shape=umlControl;whiteSpace=wrap;html=1;strokeColor=#FF3333;" parent="1" vertex="1">
          <mxGeometry x="100" y="838" width="120" height="112" as="geometry" />
        </mxCell>
        <mxCell id="pKSuD7FRT5NHdBnDsAZM-10" value="" style="endArrow=none;html=1;rounded=0;entryX=0.003;entryY=0.473;entryDx=0;entryDy=0;entryPerimeter=0;exitX=0.98;exitY=0.671;exitDx=0;exitDy=0;exitPerimeter=0;strokeColor=#FF3333;" parent="1" source="pKSuD7FRT5NHdBnDsAZM-7" target="pKSuD7FRT5NHdBnDsAZM-9" edge="1">
          <mxGeometry width="50" height="50" relative="1" as="geometry">
            <mxPoint x="10" y="870" as="sourcePoint" />
            <mxPoint x="73" y="886" as="targetPoint" />
          </mxGeometry>
        </mxCell>
        <mxCell id="pKSuD7FRT5NHdBnDsAZM-11" value="" style="endArrow=none;html=1;rounded=0;exitX=1.023;exitY=0.621;exitDx=0;exitDy=0;exitPerimeter=0;strokeColor=#FF3333;" parent="1" source="pKSuD7FRT5NHdBnDsAZM-1" target="pKSuD7FRT5NHdBnDsAZM-9" edge="1">
          <mxGeometry width="50" height="50" relative="1" as="geometry">
            <mxPoint x="323" y="497" as="sourcePoint" />
            <mxPoint x="386" y="513" as="targetPoint" />
          </mxGeometry>
        </mxCell>
        <mxCell id="pKSuD7FRT5NHdBnDsAZM-14" value="&lt;font style=&quot;font-size: 14px;&quot;&gt;Ελέγχει για διπλή προσφορά βιβλίου&amp;nbsp;&lt;/font&gt;" style="ellipse;shape=umlControl;whiteSpace=wrap;html=1;" parent="1" vertex="1">
          <mxGeometry x="410" y="748" width="100" height="102" as="geometry" />
        </mxCell>
        <mxCell id="pKSuD7FRT5NHdBnDsAZM-15" value="" style="endArrow=none;html=1;rounded=0;" parent="1" source="wwIlyqXlnapSBDa5ZAUX-23" target="pKSuD7FRT5NHdBnDsAZM-14" edge="1">
          <mxGeometry width="50" height="50" relative="1" as="geometry">
            <mxPoint x="306" y="630" as="sourcePoint" />
            <mxPoint x="382" y="657" as="targetPoint" />
          </mxGeometry>
        </mxCell>
        <mxCell id="pKSuD7FRT5NHdBnDsAZM-16" value="&lt;span style=&quot;font-size: 14px;&quot;&gt;&lt;font style=&quot;color: rgb(255, 51, 51);&quot;&gt;Εμφάνιση μηνύματος διπλής προσφοράς βιβλίου&lt;/font&gt;&lt;/span&gt;" style="ellipse;shape=umlControl;whiteSpace=wrap;html=1;strokeColor=#FF3333;" parent="1" vertex="1">
          <mxGeometry x="300" y="880" width="120" height="112" as="geometry" />
        </mxCell>
        <mxCell id="pKSuD7FRT5NHdBnDsAZM-17" value="" style="endArrow=none;html=1;rounded=0;strokeColor=#FF3333;" parent="1" source="pKSuD7FRT5NHdBnDsAZM-14" target="pKSuD7FRT5NHdBnDsAZM-16" edge="1">
          <mxGeometry width="50" height="50" relative="1" as="geometry">
            <mxPoint x="435" y="712" as="sourcePoint" />
            <mxPoint x="453" y="761" as="targetPoint" />
          </mxGeometry>
        </mxCell>
        <mxCell id="pKSuD7FRT5NHdBnDsAZM-18" value="" style="endArrow=none;html=1;rounded=0;" parent="1" source="wwIlyqXlnapSBDa5ZAUX-28" target="pKSuD7FRT5NHdBnDsAZM-14" edge="1">
          <mxGeometry width="50" height="50" relative="1" as="geometry">
            <mxPoint x="435" y="712" as="sourcePoint" />
            <mxPoint x="453" y="761" as="targetPoint" />
          </mxGeometry>
        </mxCell>
        <mxCell id="pKSuD7FRT5NHdBnDsAZM-19" value="" style="shape=umlBoundary;whiteSpace=wrap;html=1;strokeColor=#FF3333;" parent="1" vertex="1">
          <mxGeometry x="-80" y="950" width="100" height="80" as="geometry" />
        </mxCell>
        <mxCell id="pKSuD7FRT5NHdBnDsAZM-22" value="" style="endArrow=none;html=1;rounded=0;strokeColor=#FF3333;" parent="1" source="pKSuD7FRT5NHdBnDsAZM-19" target="pKSuD7FRT5NHdBnDsAZM-16" edge="1">
          <mxGeometry width="50" height="50" relative="1" as="geometry">
            <mxPoint x="-107" y="784" as="sourcePoint" />
            <mxPoint x="110" y="901" as="targetPoint" />
          </mxGeometry>
        </mxCell>
        <mxCell id="pKSuD7FRT5NHdBnDsAZM-23" value="&lt;font style=&quot;color: rgb(255, 51, 51);&quot;&gt;Το προσφερόμενο&amp;nbsp;&lt;/font&gt;&lt;div&gt;&lt;font style=&quot;color: rgb(255, 51, 51);&quot;&gt;βιβλίο υπάρχει ήδη&lt;/font&gt;&lt;/div&gt;" style="text;html=1;align=center;verticalAlign=middle;resizable=0;points=[];autosize=1;strokeColor=none;fillColor=none;" parent="1" vertex="1">
          <mxGeometry x="405" y="860" width="120" height="40" as="geometry" />
        </mxCell>
        <mxCell id="pKSuD7FRT5NHdBnDsAZM-24" value="&lt;font style=&quot;font-size: 14px; color: rgb(255, 51, 51);&quot;&gt;Duplicate Book Offer&lt;/font&gt;" style="text;html=1;align=center;verticalAlign=middle;resizable=0;points=[];autosize=1;strokeColor=none;fillColor=none;" parent="1" vertex="1">
          <mxGeometry x="-95" y="1028" width="150" height="30" as="geometry" />
        </mxCell>
        <mxCell id="pKSuD7FRT5NHdBnDsAZM-25" value="" style="endArrow=none;html=1;rounded=0;entryX=0.225;entryY=1.05;entryDx=0;entryDy=0;entryPerimeter=0;" parent="1" source="pKSuD7FRT5NHdBnDsAZM-14" target="wwIlyqXlnapSBDa5ZAUX-3" edge="1">
          <mxGeometry width="50" height="50" relative="1" as="geometry">
            <mxPoint x="590" y="570" as="sourcePoint" />
            <mxPoint x="590" y="380" as="targetPoint" />
          </mxGeometry>
        </mxCell>
      </root>
    </mxGraphModel>
  </diagram>
</mxfile>
